<mxfile host="app.diagrams.net" modified="2022-10-02T20:48:54.527Z" agent="5.0 (Macintosh; Intel Mac OS X 10_15_7) AppleWebKit/537.36 (KHTML, like Gecko) Chrome/105.0.0.0 Safari/537.36" etag="CDy7cMLepOr_v7fYCU3F" version="20.3.7" type="github">
  <diagram id="R2lEEEUBdFMjLlhIrx00" name="Entities">
    <mxGraphModel dx="1638" dy="536" grid="1" gridSize="10" guides="1" tooltips="1" connect="1" arrows="1" fold="1" page="1" pageScale="1" pageWidth="850" pageHeight="1100" math="0" shadow="0" extFonts="Permanent Marker^https://fonts.googleapis.com/css?family=Permanent+Marker">
      <root>
        <mxCell id="0" />
        <mxCell id="1" parent="0" />
        <mxCell id="j6ZGLxwOGD2uzRcKHzLd-1" value="&lt;font style=&quot;font-size: 14px;&quot;&gt;Student&lt;/font&gt;" style="whiteSpace=wrap;html=1;align=center;" vertex="1" parent="1">
          <mxGeometry x="210" y="190" width="200" height="40" as="geometry" />
        </mxCell>
        <mxCell id="j6ZGLxwOGD2uzRcKHzLd-2" value="&lt;u&gt;ID Number&lt;/u&gt;" style="ellipse;whiteSpace=wrap;html=1;align=center;fontSize=14;" vertex="1" parent="1">
          <mxGeometry x="130" y="110" width="100" height="40" as="geometry" />
        </mxCell>
        <mxCell id="j6ZGLxwOGD2uzRcKHzLd-4" value="" style="endArrow=none;html=1;rounded=0;fontSize=14;entryX=1;entryY=1;entryDx=0;entryDy=0;exitX=0.25;exitY=0;exitDx=0;exitDy=0;" edge="1" parent="1" source="j6ZGLxwOGD2uzRcKHzLd-1" target="j6ZGLxwOGD2uzRcKHzLd-2">
          <mxGeometry relative="1" as="geometry">
            <mxPoint x="380" y="280" as="sourcePoint" />
            <mxPoint x="340" y="140" as="targetPoint" />
          </mxGeometry>
        </mxCell>
        <mxCell id="j6ZGLxwOGD2uzRcKHzLd-6" value="Name" style="ellipse;whiteSpace=wrap;html=1;align=center;fontSize=14;" vertex="1" parent="1">
          <mxGeometry x="260" y="140" width="100" height="40" as="geometry" />
        </mxCell>
        <mxCell id="j6ZGLxwOGD2uzRcKHzLd-7" value="" style="endArrow=none;html=1;rounded=0;fontSize=14;exitX=0.5;exitY=0;exitDx=0;exitDy=0;entryX=0.5;entryY=1;entryDx=0;entryDy=0;" edge="1" parent="1" source="j6ZGLxwOGD2uzRcKHzLd-1" target="j6ZGLxwOGD2uzRcKHzLd-6">
          <mxGeometry relative="1" as="geometry">
            <mxPoint x="380" y="280" as="sourcePoint" />
            <mxPoint x="540" y="280" as="targetPoint" />
          </mxGeometry>
        </mxCell>
        <mxCell id="j6ZGLxwOGD2uzRcKHzLd-8" value="Last Name" style="ellipse;whiteSpace=wrap;html=1;align=center;fontSize=14;" vertex="1" parent="1">
          <mxGeometry x="330" y="80" width="100" height="40" as="geometry" />
        </mxCell>
        <mxCell id="j6ZGLxwOGD2uzRcKHzLd-9" value="First Name" style="ellipse;whiteSpace=wrap;html=1;align=center;fontSize=14;" vertex="1" parent="1">
          <mxGeometry x="220" y="80" width="100" height="40" as="geometry" />
        </mxCell>
        <mxCell id="j6ZGLxwOGD2uzRcKHzLd-10" value="" style="endArrow=none;html=1;rounded=0;fontSize=14;exitX=0.5;exitY=1;exitDx=0;exitDy=0;entryX=0.5;entryY=0;entryDx=0;entryDy=0;" edge="1" parent="1" source="j6ZGLxwOGD2uzRcKHzLd-9" target="j6ZGLxwOGD2uzRcKHzLd-6">
          <mxGeometry relative="1" as="geometry">
            <mxPoint x="380" y="280" as="sourcePoint" />
            <mxPoint x="540" y="280" as="targetPoint" />
          </mxGeometry>
        </mxCell>
        <mxCell id="j6ZGLxwOGD2uzRcKHzLd-11" value="" style="endArrow=none;html=1;rounded=0;fontSize=14;exitX=1;exitY=0;exitDx=0;exitDy=0;entryX=0.5;entryY=1;entryDx=0;entryDy=0;" edge="1" parent="1" source="j6ZGLxwOGD2uzRcKHzLd-6" target="j6ZGLxwOGD2uzRcKHzLd-8">
          <mxGeometry width="50" height="50" relative="1" as="geometry">
            <mxPoint x="430" y="300" as="sourcePoint" />
            <mxPoint x="480" y="250" as="targetPoint" />
          </mxGeometry>
        </mxCell>
        <mxCell id="j6ZGLxwOGD2uzRcKHzLd-12" value="DOB" style="ellipse;whiteSpace=wrap;html=1;align=center;fontSize=14;" vertex="1" parent="1">
          <mxGeometry x="390" y="130" width="100" height="40" as="geometry" />
        </mxCell>
        <mxCell id="j6ZGLxwOGD2uzRcKHzLd-13" value="" style="endArrow=none;html=1;rounded=0;fontSize=14;entryX=0;entryY=1;entryDx=0;entryDy=0;exitX=0.75;exitY=0;exitDx=0;exitDy=0;" edge="1" parent="1" source="j6ZGLxwOGD2uzRcKHzLd-1" target="j6ZGLxwOGD2uzRcKHzLd-12">
          <mxGeometry width="50" height="50" relative="1" as="geometry">
            <mxPoint x="430" y="300" as="sourcePoint" />
            <mxPoint x="480" y="250" as="targetPoint" />
          </mxGeometry>
        </mxCell>
        <mxCell id="j6ZGLxwOGD2uzRcKHzLd-14" value="Day" style="ellipse;whiteSpace=wrap;html=1;align=center;fontSize=14;" vertex="1" parent="1">
          <mxGeometry x="540" y="100" width="100" height="40" as="geometry" />
        </mxCell>
        <mxCell id="j6ZGLxwOGD2uzRcKHzLd-15" value="Year" style="ellipse;whiteSpace=wrap;html=1;align=center;fontSize=14;" vertex="1" parent="1">
          <mxGeometry x="510" y="150" width="100" height="40" as="geometry" />
        </mxCell>
        <mxCell id="j6ZGLxwOGD2uzRcKHzLd-16" value="Month" style="ellipse;whiteSpace=wrap;html=1;align=center;fontSize=14;" vertex="1" parent="1">
          <mxGeometry x="440" y="70" width="100" height="40" as="geometry" />
        </mxCell>
        <mxCell id="j6ZGLxwOGD2uzRcKHzLd-17" value="" style="endArrow=none;html=1;rounded=0;fontSize=14;entryX=0.5;entryY=0;entryDx=0;entryDy=0;exitX=0.5;exitY=1;exitDx=0;exitDy=0;" edge="1" parent="1" source="j6ZGLxwOGD2uzRcKHzLd-16" target="j6ZGLxwOGD2uzRcKHzLd-12">
          <mxGeometry width="50" height="50" relative="1" as="geometry">
            <mxPoint x="430" y="300" as="sourcePoint" />
            <mxPoint x="480" y="250" as="targetPoint" />
          </mxGeometry>
        </mxCell>
        <mxCell id="j6ZGLxwOGD2uzRcKHzLd-18" value="" style="endArrow=none;html=1;rounded=0;fontSize=14;entryX=1;entryY=0;entryDx=0;entryDy=0;exitX=0;exitY=0.5;exitDx=0;exitDy=0;" edge="1" parent="1" source="j6ZGLxwOGD2uzRcKHzLd-14" target="j6ZGLxwOGD2uzRcKHzLd-12">
          <mxGeometry width="50" height="50" relative="1" as="geometry">
            <mxPoint x="430" y="300" as="sourcePoint" />
            <mxPoint x="480" y="250" as="targetPoint" />
          </mxGeometry>
        </mxCell>
        <mxCell id="j6ZGLxwOGD2uzRcKHzLd-19" value="" style="endArrow=none;html=1;rounded=0;fontSize=14;entryX=1;entryY=1;entryDx=0;entryDy=0;exitX=0;exitY=0.5;exitDx=0;exitDy=0;" edge="1" parent="1" source="j6ZGLxwOGD2uzRcKHzLd-15" target="j6ZGLxwOGD2uzRcKHzLd-12">
          <mxGeometry width="50" height="50" relative="1" as="geometry">
            <mxPoint x="430" y="300" as="sourcePoint" />
            <mxPoint x="480" y="250" as="targetPoint" />
          </mxGeometry>
        </mxCell>
        <mxCell id="j6ZGLxwOGD2uzRcKHzLd-20" value="&lt;span data-reactroot=&quot;&quot; class=&quot;notion-enable-hover&quot; data-token-index=&quot;0&quot; style=&quot;&quot;&gt;Kindergarten&lt;/span&gt;" style="whiteSpace=wrap;html=1;align=center;fontSize=14;" vertex="1" parent="1">
          <mxGeometry x="180" y="380" width="100" height="40" as="geometry" />
        </mxCell>
        <mxCell id="j6ZGLxwOGD2uzRcKHzLd-21" value="&lt;span data-reactroot=&quot;&quot; class=&quot;notion-enable-hover&quot; data-token-index=&quot;0&quot; style=&quot;&quot;&gt;Elementary&lt;/span&gt;" style="whiteSpace=wrap;html=1;align=center;fontSize=14;" vertex="1" parent="1">
          <mxGeometry x="360" y="380" width="100" height="40" as="geometry" />
        </mxCell>
        <mxCell id="j6ZGLxwOGD2uzRcKHzLd-22" value="&lt;b&gt;d&lt;/b&gt;" style="ellipse;whiteSpace=wrap;html=1;aspect=fixed;fontSize=14;" vertex="1" parent="1">
          <mxGeometry x="295" y="270" width="30" height="30" as="geometry" />
        </mxCell>
        <mxCell id="j6ZGLxwOGD2uzRcKHzLd-23" value="" style="shape=link;html=1;rounded=0;fontSize=14;entryX=0.5;entryY=1;entryDx=0;entryDy=0;exitX=0.5;exitY=0;exitDx=0;exitDy=0;" edge="1" parent="1" source="j6ZGLxwOGD2uzRcKHzLd-22" target="j6ZGLxwOGD2uzRcKHzLd-1">
          <mxGeometry width="100" relative="1" as="geometry">
            <mxPoint x="330" y="280" as="sourcePoint" />
            <mxPoint x="430" y="280" as="targetPoint" />
          </mxGeometry>
        </mxCell>
        <mxCell id="j6ZGLxwOGD2uzRcKHzLd-24" value="" style="endArrow=none;html=1;rounded=0;fontSize=14;entryX=0;entryY=0.5;entryDx=0;entryDy=0;exitX=0.5;exitY=0;exitDx=0;exitDy=0;" edge="1" parent="1" source="j6ZGLxwOGD2uzRcKHzLd-20" target="j6ZGLxwOGD2uzRcKHzLd-22">
          <mxGeometry width="50" height="50" relative="1" as="geometry">
            <mxPoint x="360" y="300" as="sourcePoint" />
            <mxPoint x="410" y="250" as="targetPoint" />
          </mxGeometry>
        </mxCell>
        <mxCell id="j6ZGLxwOGD2uzRcKHzLd-25" value="" style="endArrow=none;html=1;rounded=0;fontSize=14;entryX=1;entryY=0.5;entryDx=0;entryDy=0;exitX=0.5;exitY=0;exitDx=0;exitDy=0;" edge="1" parent="1" source="j6ZGLxwOGD2uzRcKHzLd-21" target="j6ZGLxwOGD2uzRcKHzLd-22">
          <mxGeometry width="50" height="50" relative="1" as="geometry">
            <mxPoint x="170" y="340" as="sourcePoint" />
            <mxPoint x="305" y="295" as="targetPoint" />
          </mxGeometry>
        </mxCell>
        <mxCell id="j6ZGLxwOGD2uzRcKHzLd-26" value="Shift" style="ellipse;whiteSpace=wrap;html=1;align=center;fontSize=14;" vertex="1" parent="1">
          <mxGeometry x="150" y="320" width="100" height="40" as="geometry" />
        </mxCell>
        <mxCell id="j6ZGLxwOGD2uzRcKHzLd-27" value="Division" style="ellipse;whiteSpace=wrap;html=1;align=center;fontSize=14;" vertex="1" parent="1">
          <mxGeometry x="420" y="320" width="100" height="40" as="geometry" />
        </mxCell>
        <mxCell id="j6ZGLxwOGD2uzRcKHzLd-28" value="" style="endArrow=none;html=1;rounded=0;fontSize=14;entryX=0.5;entryY=1;entryDx=0;entryDy=0;exitX=0.5;exitY=0;exitDx=0;exitDy=0;" edge="1" parent="1" source="j6ZGLxwOGD2uzRcKHzLd-20" target="j6ZGLxwOGD2uzRcKHzLd-26">
          <mxGeometry width="50" height="50" relative="1" as="geometry">
            <mxPoint x="430" y="350" as="sourcePoint" />
            <mxPoint x="480" y="300" as="targetPoint" />
          </mxGeometry>
        </mxCell>
        <mxCell id="j6ZGLxwOGD2uzRcKHzLd-29" value="" style="endArrow=none;html=1;rounded=0;fontSize=14;entryX=0.5;entryY=1;entryDx=0;entryDy=0;exitX=0.5;exitY=0;exitDx=0;exitDy=0;" edge="1" parent="1" source="j6ZGLxwOGD2uzRcKHzLd-21" target="j6ZGLxwOGD2uzRcKHzLd-27">
          <mxGeometry width="50" height="50" relative="1" as="geometry">
            <mxPoint x="310" y="350" as="sourcePoint" />
            <mxPoint x="360" y="300" as="targetPoint" />
          </mxGeometry>
        </mxCell>
        <mxCell id="j6ZGLxwOGD2uzRcKHzLd-33" value="&lt;meta charset=&quot;utf-8&quot;&gt;&lt;span style=&quot;color: rgb(0, 0, 0); font-family: Helvetica; font-size: 14px; font-style: normal; font-variant-ligatures: normal; font-variant-caps: normal; font-weight: 400; letter-spacing: normal; orphans: 2; text-align: center; text-indent: 0px; text-transform: none; widows: 2; word-spacing: 0px; -webkit-text-stroke-width: 0px; background-color: rgb(248, 249, 250); text-decoration-thickness: initial; text-decoration-style: initial; text-decoration-color: initial; float: none; display: inline !important;&quot;&gt;N&lt;/span&gt;" style="text;html=1;strokeColor=none;fillColor=none;align=center;verticalAlign=middle;whiteSpace=wrap;rounded=0;fontSize=14;" vertex="1" parent="1">
          <mxGeometry x="50" y="180" width="60" height="30" as="geometry" />
        </mxCell>
        <mxCell id="j6ZGLxwOGD2uzRcKHzLd-35" value="" style="endArrow=none;html=1;rounded=0;fontSize=14;entryX=0;entryY=0.5;entryDx=0;entryDy=0;exitX=1;exitY=0.5;exitDx=0;exitDy=0;" edge="1" parent="1" source="j6ZGLxwOGD2uzRcKHzLd-36" target="j6ZGLxwOGD2uzRcKHzLd-1">
          <mxGeometry width="50" height="50" relative="1" as="geometry">
            <mxPoint x="70" y="210" as="sourcePoint" />
            <mxPoint x="130" y="250" as="targetPoint" />
          </mxGeometry>
        </mxCell>
        <mxCell id="j6ZGLxwOGD2uzRcKHzLd-36" value="Registers" style="shape=rhombus;perimeter=rhombusPerimeter;whiteSpace=wrap;html=1;align=center;fontSize=14;" vertex="1" parent="1">
          <mxGeometry x="-50" y="180" width="120" height="60" as="geometry" />
        </mxCell>
        <mxCell id="j6ZGLxwOGD2uzRcKHzLd-37" value="Parent" style="whiteSpace=wrap;html=1;align=center;fontSize=14;" vertex="1" parent="1">
          <mxGeometry x="-270" y="190" width="100" height="40" as="geometry" />
        </mxCell>
        <mxCell id="j6ZGLxwOGD2uzRcKHzLd-38" value="" style="endArrow=none;html=1;rounded=0;fontSize=14;entryX=0;entryY=0.5;entryDx=0;entryDy=0;exitX=1;exitY=0.5;exitDx=0;exitDy=0;" edge="1" parent="1" source="j6ZGLxwOGD2uzRcKHzLd-37" target="j6ZGLxwOGD2uzRcKHzLd-36">
          <mxGeometry width="50" height="50" relative="1" as="geometry">
            <mxPoint x="-80" y="300" as="sourcePoint" />
            <mxPoint x="-30" y="250" as="targetPoint" />
          </mxGeometry>
        </mxCell>
        <mxCell id="j6ZGLxwOGD2uzRcKHzLd-39" value="1" style="text;html=1;strokeColor=none;fillColor=none;align=center;verticalAlign=middle;whiteSpace=wrap;rounded=0;fontSize=14;" vertex="1" parent="1">
          <mxGeometry x="-90" y="180" width="60" height="30" as="geometry" />
        </mxCell>
        <mxCell id="j6ZGLxwOGD2uzRcKHzLd-41" value="Name" style="ellipse;whiteSpace=wrap;html=1;align=center;fontSize=14;" vertex="1" parent="1">
          <mxGeometry x="-190" y="130" width="100" height="40" as="geometry" />
        </mxCell>
        <mxCell id="j6ZGLxwOGD2uzRcKHzLd-42" value="Last Name" style="ellipse;whiteSpace=wrap;html=1;align=center;fontSize=14;" vertex="1" parent="1">
          <mxGeometry x="-120" y="70" width="100" height="40" as="geometry" />
        </mxCell>
        <mxCell id="j6ZGLxwOGD2uzRcKHzLd-43" value="First Name" style="ellipse;whiteSpace=wrap;html=1;align=center;fontSize=14;" vertex="1" parent="1">
          <mxGeometry x="-230" y="70" width="100" height="40" as="geometry" />
        </mxCell>
        <mxCell id="j6ZGLxwOGD2uzRcKHzLd-44" value="" style="endArrow=none;html=1;rounded=0;fontSize=14;exitX=0.5;exitY=1;exitDx=0;exitDy=0;entryX=0.5;entryY=0;entryDx=0;entryDy=0;" edge="1" parent="1" source="j6ZGLxwOGD2uzRcKHzLd-43" target="j6ZGLxwOGD2uzRcKHzLd-41">
          <mxGeometry relative="1" as="geometry">
            <mxPoint x="-70" y="270" as="sourcePoint" />
            <mxPoint x="90" y="270" as="targetPoint" />
          </mxGeometry>
        </mxCell>
        <mxCell id="j6ZGLxwOGD2uzRcKHzLd-45" value="" style="endArrow=none;html=1;rounded=0;fontSize=14;exitX=1;exitY=0;exitDx=0;exitDy=0;entryX=0.5;entryY=1;entryDx=0;entryDy=0;" edge="1" parent="1" source="j6ZGLxwOGD2uzRcKHzLd-41" target="j6ZGLxwOGD2uzRcKHzLd-42">
          <mxGeometry width="50" height="50" relative="1" as="geometry">
            <mxPoint x="-20" y="290" as="sourcePoint" />
            <mxPoint x="30" y="240" as="targetPoint" />
          </mxGeometry>
        </mxCell>
        <mxCell id="j6ZGLxwOGD2uzRcKHzLd-46" value="" style="endArrow=none;html=1;rounded=0;fontSize=14;entryX=0;entryY=1;entryDx=0;entryDy=0;exitX=0.75;exitY=0;exitDx=0;exitDy=0;" edge="1" parent="1" source="j6ZGLxwOGD2uzRcKHzLd-37" target="j6ZGLxwOGD2uzRcKHzLd-41">
          <mxGeometry relative="1" as="geometry">
            <mxPoint x="-230" y="200" as="sourcePoint" />
            <mxPoint x="-70" y="200" as="targetPoint" />
          </mxGeometry>
        </mxCell>
        <mxCell id="j6ZGLxwOGD2uzRcKHzLd-47" value="Email Address" style="ellipse;whiteSpace=wrap;html=1;align=center;fontStyle=4;fontSize=14;" vertex="1" parent="1">
          <mxGeometry x="-350" y="130" width="120" height="40" as="geometry" />
        </mxCell>
        <mxCell id="j6ZGLxwOGD2uzRcKHzLd-48" value="" style="endArrow=none;html=1;rounded=0;fontSize=14;exitX=1;exitY=1;exitDx=0;exitDy=0;entryX=0.25;entryY=0;entryDx=0;entryDy=0;" edge="1" parent="1" source="j6ZGLxwOGD2uzRcKHzLd-47" target="j6ZGLxwOGD2uzRcKHzLd-37">
          <mxGeometry relative="1" as="geometry">
            <mxPoint x="-230" y="200" as="sourcePoint" />
            <mxPoint x="-70" y="200" as="targetPoint" />
          </mxGeometry>
        </mxCell>
        <mxCell id="j6ZGLxwOGD2uzRcKHzLd-54" value="Address" style="ellipse;whiteSpace=wrap;html=1;align=center;fontSize=14;" vertex="1" parent="1">
          <mxGeometry x="-340" y="260" width="100" height="40" as="geometry" />
        </mxCell>
        <mxCell id="j6ZGLxwOGD2uzRcKHzLd-56" value="" style="endArrow=none;html=1;rounded=0;fontSize=14;entryX=0;entryY=1;entryDx=0;entryDy=0;exitX=0.5;exitY=0;exitDx=0;exitDy=0;" edge="1" parent="1" source="j6ZGLxwOGD2uzRcKHzLd-54" target="j6ZGLxwOGD2uzRcKHzLd-37">
          <mxGeometry relative="1" as="geometry">
            <mxPoint x="-230" y="200" as="sourcePoint" />
            <mxPoint x="-70" y="200" as="targetPoint" />
          </mxGeometry>
        </mxCell>
        <mxCell id="j6ZGLxwOGD2uzRcKHzLd-58" value="Postal Code" style="ellipse;whiteSpace=wrap;html=1;align=center;fontSize=14;" vertex="1" parent="1">
          <mxGeometry x="-450" y="310" width="100" height="40" as="geometry" />
        </mxCell>
        <mxCell id="j6ZGLxwOGD2uzRcKHzLd-59" value="House #" style="ellipse;whiteSpace=wrap;html=1;align=center;fontSize=14;" vertex="1" parent="1">
          <mxGeometry x="-460" y="250" width="100" height="40" as="geometry" />
        </mxCell>
        <mxCell id="j6ZGLxwOGD2uzRcKHzLd-60" value="Street" style="ellipse;whiteSpace=wrap;html=1;align=center;fontSize=14;" vertex="1" parent="1">
          <mxGeometry x="-450" y="190" width="100" height="40" as="geometry" />
        </mxCell>
        <mxCell id="j6ZGLxwOGD2uzRcKHzLd-61" value="" style="endArrow=none;html=1;rounded=0;fontSize=14;exitX=1;exitY=1;exitDx=0;exitDy=0;entryX=0;entryY=0;entryDx=0;entryDy=0;" edge="1" parent="1" source="j6ZGLxwOGD2uzRcKHzLd-60" target="j6ZGLxwOGD2uzRcKHzLd-54">
          <mxGeometry relative="1" as="geometry">
            <mxPoint x="-230" y="200" as="sourcePoint" />
            <mxPoint x="-70" y="200" as="targetPoint" />
          </mxGeometry>
        </mxCell>
        <mxCell id="j6ZGLxwOGD2uzRcKHzLd-62" value="" style="endArrow=none;html=1;rounded=0;fontSize=14;exitX=1;exitY=1;exitDx=0;exitDy=0;entryX=0;entryY=1;entryDx=0;entryDy=0;" edge="1" parent="1" source="j6ZGLxwOGD2uzRcKHzLd-59" target="j6ZGLxwOGD2uzRcKHzLd-54">
          <mxGeometry relative="1" as="geometry">
            <mxPoint x="-230" y="200" as="sourcePoint" />
            <mxPoint x="-70" y="200" as="targetPoint" />
          </mxGeometry>
        </mxCell>
        <mxCell id="j6ZGLxwOGD2uzRcKHzLd-63" value="" style="endArrow=none;html=1;rounded=0;fontSize=14;exitX=0.5;exitY=1;exitDx=0;exitDy=0;entryX=1;entryY=0.5;entryDx=0;entryDy=0;" edge="1" parent="1" source="j6ZGLxwOGD2uzRcKHzLd-54" target="j6ZGLxwOGD2uzRcKHzLd-58">
          <mxGeometry relative="1" as="geometry">
            <mxPoint x="-230" y="200" as="sourcePoint" />
            <mxPoint x="-70" y="200" as="targetPoint" />
          </mxGeometry>
        </mxCell>
        <mxCell id="j6ZGLxwOGD2uzRcKHzLd-64" value="Phone Number" style="ellipse;shape=doubleEllipse;margin=3;whiteSpace=wrap;html=1;align=center;fontSize=14;" vertex="1" parent="1">
          <mxGeometry x="-210" y="270" width="120" height="40" as="geometry" />
        </mxCell>
        <mxCell id="j6ZGLxwOGD2uzRcKHzLd-65" value="" style="endArrow=none;html=1;rounded=0;fontSize=14;exitX=0.5;exitY=1;exitDx=0;exitDy=0;entryX=0;entryY=0;entryDx=0;entryDy=0;" edge="1" parent="1" source="j6ZGLxwOGD2uzRcKHzLd-37" target="j6ZGLxwOGD2uzRcKHzLd-64">
          <mxGeometry relative="1" as="geometry">
            <mxPoint x="-230" y="190" as="sourcePoint" />
            <mxPoint x="-70" y="190" as="targetPoint" />
          </mxGeometry>
        </mxCell>
        <mxCell id="j6ZGLxwOGD2uzRcKHzLd-66" value="Has" style="shape=rhombus;double=1;perimeter=rhombusPerimeter;whiteSpace=wrap;html=1;align=center;fontSize=14;" vertex="1" parent="1">
          <mxGeometry x="10" y="280" width="120" height="60" as="geometry" />
        </mxCell>
        <mxCell id="j6ZGLxwOGD2uzRcKHzLd-67" value="" style="endArrow=none;html=1;rounded=0;fontSize=14;entryX=0;entryY=1;entryDx=0;entryDy=0;exitX=1;exitY=0.5;exitDx=0;exitDy=0;" edge="1" parent="1" source="j6ZGLxwOGD2uzRcKHzLd-66" target="j6ZGLxwOGD2uzRcKHzLd-1">
          <mxGeometry relative="1" as="geometry">
            <mxPoint x="-50" y="260" as="sourcePoint" />
            <mxPoint x="110" y="260" as="targetPoint" />
          </mxGeometry>
        </mxCell>
        <mxCell id="j6ZGLxwOGD2uzRcKHzLd-68" value="1" style="text;html=1;strokeColor=none;fillColor=none;align=center;verticalAlign=middle;whiteSpace=wrap;rounded=0;fontSize=14;rotation=-45;" vertex="1" parent="1">
          <mxGeometry x="100" y="275" width="60" height="30" as="geometry" />
        </mxCell>
        <mxCell id="j6ZGLxwOGD2uzRcKHzLd-69" value="Entity" style="shape=ext;margin=3;double=1;whiteSpace=wrap;html=1;align=center;fontSize=14;" vertex="1" parent="1">
          <mxGeometry x="-130" y="400" width="100" height="40" as="geometry" />
        </mxCell>
        <mxCell id="j6ZGLxwOGD2uzRcKHzLd-70" value="" style="endArrow=none;html=1;rounded=0;fontSize=14;entryX=0;entryY=0.5;entryDx=0;entryDy=0;exitX=0.75;exitY=0;exitDx=0;exitDy=0;" edge="1" parent="1" source="j6ZGLxwOGD2uzRcKHzLd-69" target="j6ZGLxwOGD2uzRcKHzLd-66">
          <mxGeometry relative="1" as="geometry">
            <mxPoint x="-130" y="260" as="sourcePoint" />
            <mxPoint x="30" y="260" as="targetPoint" />
          </mxGeometry>
        </mxCell>
        <mxCell id="j6ZGLxwOGD2uzRcKHzLd-71" value="N" style="text;html=1;strokeColor=none;fillColor=none;align=center;verticalAlign=middle;whiteSpace=wrap;rounded=0;fontSize=14;rotation=-60;" vertex="1" parent="1">
          <mxGeometry x="-50" y="310" width="60" height="30" as="geometry" />
        </mxCell>
        <mxCell id="j6ZGLxwOGD2uzRcKHzLd-72" value="Type&lt;span style=&quot;color: rgba(0, 0, 0, 0); font-family: monospace; font-size: 0px; text-align: start;&quot;&gt;%3CmxGraphModel%3E%3Croot%3E%3CmxCell%20id%3D%220%22%2F%3E%3CmxCell%20id%3D%221%22%20parent%3D%220%22%2F%3E%3CmxCell%20id%3D%222%22%20value%3D%221%22%20style%3D%22text%3Bhtml%3D1%3BstrokeColor%3Dnone%3BfillColor%3Dnone%3Balign%3Dcenter%3BverticalAlign%3Dmiddle%3BwhiteSpace%3Dwrap%3Brounded%3D0%3BfontSize%3D14%3Brotation%3D-45%3B%22%20vertex%3D%221%22%20parent%3D%221%22%3E%3CmxGeometry%20x%3D%22100%22%20y%3D%22275%22%20width%3D%2260%22%20height%3D%2230%22%20as%3D%22geometry%22%2F%3E%3C%2FmxCell%3E%3C%2Froot%3E%3C%2FmxGraphModel%3E&lt;/span&gt;&lt;span style=&quot;color: rgba(0, 0, 0, 0); font-family: monospace; font-size: 0px; text-align: start;&quot;&gt;%3CmxGraphModel%3E%3Croot%3E%3CmxCell%20id%3D%220%22%2F%3E%3CmxCell%20id%3D%221%22%20parent%3D%220%22%2F%3E%3CmxCell%20id%3D%222%22%20value%3D%221%22%20style%3D%22text%3Bhtml%3D1%3BstrokeColor%3Dnone%3BfillColor%3Dnone%3Balign%3Dcenter%3BverticalAlign%3Dmiddle%3BwhiteSpace%3Dwrap%3Brounded%3D0%3BfontSize%3D14%3Brotation%3D-45%3B%22%20vertex%3D%221%22%20parent%3D%221%22%3E%3CmxGeometry%20x%3D%22100%22%20y%3D%22275%22%20width%3D%2260%22%20height%3D%2230%22%20as%3D%22geometry%22%2F%3E%3C%2FmxCell%3E%3C%2Froot%3E%3C%2FmxGraphModel%3E&lt;/span&gt;" style="ellipse;whiteSpace=wrap;html=1;align=center;fontSize=14;" vertex="1" parent="1">
          <mxGeometry x="-200" y="340" width="100" height="40" as="geometry" />
        </mxCell>
        <mxCell id="j6ZGLxwOGD2uzRcKHzLd-74" value="Treatment" style="ellipse;whiteSpace=wrap;html=1;align=center;fontSize=14;" vertex="1" parent="1">
          <mxGeometry x="-200" y="460" width="100" height="40" as="geometry" />
        </mxCell>
        <mxCell id="j6ZGLxwOGD2uzRcKHzLd-75" value="" style="endArrow=none;html=1;rounded=0;fontSize=14;entryX=0.5;entryY=0;entryDx=0;entryDy=0;exitX=0.5;exitY=1;exitDx=0;exitDy=0;" edge="1" parent="1" source="j6ZGLxwOGD2uzRcKHzLd-72" target="j6ZGLxwOGD2uzRcKHzLd-69">
          <mxGeometry relative="1" as="geometry">
            <mxPoint x="-230" y="390" as="sourcePoint" />
            <mxPoint x="-70" y="390" as="targetPoint" />
          </mxGeometry>
        </mxCell>
        <mxCell id="j6ZGLxwOGD2uzRcKHzLd-76" value="" style="endArrow=none;html=1;rounded=0;fontSize=14;entryX=0;entryY=0.5;entryDx=0;entryDy=0;exitX=1;exitY=0.5;exitDx=0;exitDy=0;" edge="1" parent="1" source="j6ZGLxwOGD2uzRcKHzLd-78" target="j6ZGLxwOGD2uzRcKHzLd-69">
          <mxGeometry relative="1" as="geometry">
            <mxPoint x="-150" y="420" as="sourcePoint" />
            <mxPoint x="-70" y="390" as="targetPoint" />
          </mxGeometry>
        </mxCell>
        <mxCell id="j6ZGLxwOGD2uzRcKHzLd-77" value="" style="endArrow=none;html=1;rounded=0;fontSize=14;entryX=0.5;entryY=1;entryDx=0;entryDy=0;exitX=1;exitY=0;exitDx=0;exitDy=0;" edge="1" parent="1" source="j6ZGLxwOGD2uzRcKHzLd-74" target="j6ZGLxwOGD2uzRcKHzLd-69">
          <mxGeometry relative="1" as="geometry">
            <mxPoint x="-230" y="390" as="sourcePoint" />
            <mxPoint x="-70" y="390" as="targetPoint" />
          </mxGeometry>
        </mxCell>
        <mxCell id="j6ZGLxwOGD2uzRcKHzLd-78" value="&lt;span style=&quot;border-bottom: 1px dotted&quot;&gt;Name&lt;/span&gt;" style="ellipse;whiteSpace=wrap;html=1;align=center;fontSize=14;" vertex="1" parent="1">
          <mxGeometry x="-260" y="400" width="100" height="40" as="geometry" />
        </mxCell>
        <mxCell id="j6ZGLxwOGD2uzRcKHzLd-80" value="Has" style="shape=rhombus;perimeter=rhombusPerimeter;whiteSpace=wrap;html=1;align=center;fontSize=14;" vertex="1" parent="1">
          <mxGeometry x="540" y="340" width="120" height="60" as="geometry" />
        </mxCell>
        <mxCell id="j6ZGLxwOGD2uzRcKHzLd-81" value="" style="shape=link;html=1;rounded=0;fontSize=14;entryX=0.5;entryY=1;entryDx=0;entryDy=0;exitX=0.5;exitY=0;exitDx=0;exitDy=0;" edge="1" parent="1" source="j6ZGLxwOGD2uzRcKHzLd-84" target="j6ZGLxwOGD2uzRcKHzLd-80">
          <mxGeometry width="100" relative="1" as="geometry">
            <mxPoint x="600" y="480" as="sourcePoint" />
            <mxPoint x="510" y="300" as="targetPoint" />
          </mxGeometry>
        </mxCell>
        <mxCell id="j6ZGLxwOGD2uzRcKHzLd-82" value="1" style="text;html=1;strokeColor=none;fillColor=none;align=center;verticalAlign=middle;whiteSpace=wrap;rounded=0;fontSize=14;rotation=30;" vertex="1" parent="1">
          <mxGeometry x="550" y="295" width="60" height="30" as="geometry" />
        </mxCell>
        <mxCell id="j6ZGLxwOGD2uzRcKHzLd-83" value="&lt;span style=&quot;color: rgb(0, 0, 0); font-family: Helvetica; font-size: 14px; font-style: normal; font-variant-ligatures: normal; font-variant-caps: normal; font-weight: 400; letter-spacing: normal; orphans: 2; text-align: center; text-indent: 0px; text-transform: none; widows: 2; word-spacing: 0px; -webkit-text-stroke-width: 0px; background-color: rgb(248, 249, 250); text-decoration-thickness: initial; text-decoration-style: initial; text-decoration-color: initial; float: none; display: inline !important;&quot;&gt;1&lt;/span&gt;" style="text;html=1;strokeColor=none;fillColor=none;align=center;verticalAlign=middle;whiteSpace=wrap;rounded=0;fontSize=14;" vertex="1" parent="1">
          <mxGeometry x="590" y="400" width="60" height="30" as="geometry" />
        </mxCell>
        <mxCell id="j6ZGLxwOGD2uzRcKHzLd-84" value="Emergency Contact" style="whiteSpace=wrap;html=1;align=center;fontSize=14;" vertex="1" parent="1">
          <mxGeometry x="450" y="490" width="190" height="40" as="geometry" />
        </mxCell>
        <mxCell id="j6ZGLxwOGD2uzRcKHzLd-85" value="Email Address" style="ellipse;whiteSpace=wrap;html=1;align=center;fontStyle=4;fontSize=14;" vertex="1" parent="1">
          <mxGeometry x="325" y="530" width="140" height="40" as="geometry" />
        </mxCell>
        <mxCell id="j6ZGLxwOGD2uzRcKHzLd-87" value="Relationship" style="ellipse;whiteSpace=wrap;html=1;align=center;fontSize=14;" vertex="1" parent="1">
          <mxGeometry x="320" y="450" width="100" height="40" as="geometry" />
        </mxCell>
        <mxCell id="j6ZGLxwOGD2uzRcKHzLd-88" value="&lt;u&gt;Name&lt;/u&gt;" style="ellipse;whiteSpace=wrap;html=1;align=center;fontSize=14;" vertex="1" parent="1">
          <mxGeometry x="565" y="550" width="100" height="40" as="geometry" />
        </mxCell>
        <mxCell id="j6ZGLxwOGD2uzRcKHzLd-89" value="&lt;u&gt;Last Name&lt;/u&gt;" style="ellipse;whiteSpace=wrap;html=1;align=center;fontSize=14;" vertex="1" parent="1">
          <mxGeometry x="635" y="610" width="100" height="40" as="geometry" />
        </mxCell>
        <mxCell id="j6ZGLxwOGD2uzRcKHzLd-90" value="&lt;u&gt;First Name&lt;/u&gt;" style="ellipse;whiteSpace=wrap;html=1;align=center;fontSize=14;" vertex="1" parent="1">
          <mxGeometry x="525" y="640" width="100" height="40" as="geometry" />
        </mxCell>
        <mxCell id="j6ZGLxwOGD2uzRcKHzLd-91" value="" style="endArrow=none;html=1;rounded=0;fontSize=14;exitX=1;exitY=0.5;exitDx=0;exitDy=0;entryX=0;entryY=0.5;entryDx=0;entryDy=0;" edge="1" parent="1" source="j6ZGLxwOGD2uzRcKHzLd-87" target="j6ZGLxwOGD2uzRcKHzLd-84">
          <mxGeometry relative="1" as="geometry">
            <mxPoint x="465" y="460" as="sourcePoint" />
            <mxPoint x="625" y="460" as="targetPoint" />
          </mxGeometry>
        </mxCell>
        <mxCell id="j6ZGLxwOGD2uzRcKHzLd-92" value="" style="endArrow=none;html=1;rounded=0;fontSize=14;exitX=1;exitY=0.5;exitDx=0;exitDy=0;entryX=0.25;entryY=1;entryDx=0;entryDy=0;" edge="1" parent="1" source="j6ZGLxwOGD2uzRcKHzLd-85" target="j6ZGLxwOGD2uzRcKHzLd-84">
          <mxGeometry relative="1" as="geometry">
            <mxPoint x="465" y="460" as="sourcePoint" />
            <mxPoint x="625" y="460" as="targetPoint" />
          </mxGeometry>
        </mxCell>
        <mxCell id="j6ZGLxwOGD2uzRcKHzLd-93" value="" style="endArrow=none;html=1;rounded=0;fontSize=14;entryX=0.5;entryY=1;entryDx=0;entryDy=0;exitX=0.5;exitY=0;exitDx=0;exitDy=0;" edge="1" parent="1" source="j6ZGLxwOGD2uzRcKHzLd-99" target="j6ZGLxwOGD2uzRcKHzLd-84">
          <mxGeometry relative="1" as="geometry">
            <mxPoint x="490" y="580" as="sourcePoint" />
            <mxPoint x="625" y="460" as="targetPoint" />
          </mxGeometry>
        </mxCell>
        <mxCell id="j6ZGLxwOGD2uzRcKHzLd-94" value="" style="endArrow=none;html=1;rounded=0;fontSize=14;exitX=0.75;exitY=1;exitDx=0;exitDy=0;entryX=0.5;entryY=0;entryDx=0;entryDy=0;" edge="1" parent="1" source="j6ZGLxwOGD2uzRcKHzLd-84" target="j6ZGLxwOGD2uzRcKHzLd-88">
          <mxGeometry relative="1" as="geometry">
            <mxPoint x="465" y="460" as="sourcePoint" />
            <mxPoint x="625" y="460" as="targetPoint" />
          </mxGeometry>
        </mxCell>
        <mxCell id="j6ZGLxwOGD2uzRcKHzLd-96" value="" style="endArrow=none;html=1;rounded=0;fontSize=14;entryX=0.5;entryY=1;entryDx=0;entryDy=0;exitX=0.5;exitY=0;exitDx=0;exitDy=0;" edge="1" parent="1" source="j6ZGLxwOGD2uzRcKHzLd-90" target="j6ZGLxwOGD2uzRcKHzLd-88">
          <mxGeometry relative="1" as="geometry">
            <mxPoint x="465" y="460" as="sourcePoint" />
            <mxPoint x="625" y="460" as="targetPoint" />
          </mxGeometry>
        </mxCell>
        <mxCell id="j6ZGLxwOGD2uzRcKHzLd-97" value="" style="endArrow=none;html=1;rounded=0;fontSize=14;entryX=0.5;entryY=0;entryDx=0;entryDy=0;exitX=1;exitY=1;exitDx=0;exitDy=0;" edge="1" parent="1" source="j6ZGLxwOGD2uzRcKHzLd-88" target="j6ZGLxwOGD2uzRcKHzLd-89">
          <mxGeometry relative="1" as="geometry">
            <mxPoint x="465" y="460" as="sourcePoint" />
            <mxPoint x="625" y="460" as="targetPoint" />
          </mxGeometry>
        </mxCell>
        <mxCell id="j6ZGLxwOGD2uzRcKHzLd-99" value="Phone Number" style="ellipse;whiteSpace=wrap;html=1;align=center;fontSize=14;" vertex="1" parent="1">
          <mxGeometry x="425" y="590" width="110" height="40" as="geometry" />
        </mxCell>
        <mxCell id="j6ZGLxwOGD2uzRcKHzLd-101" value="Enrolled_IN" style="shape=rhombus;perimeter=rhombusPerimeter;whiteSpace=wrap;html=1;align=center;fontSize=14;" vertex="1" parent="1">
          <mxGeometry x="660" y="180" width="120" height="60" as="geometry" />
        </mxCell>
        <mxCell id="j6ZGLxwOGD2uzRcKHzLd-102" value="Grade" style="whiteSpace=wrap;html=1;align=center;fontSize=14;" vertex="1" parent="1">
          <mxGeometry x="900" y="190" width="100" height="40" as="geometry" />
        </mxCell>
        <mxCell id="j6ZGLxwOGD2uzRcKHzLd-104" value="" style="shape=link;html=1;rounded=0;fontSize=14;exitX=1;exitY=0.5;exitDx=0;exitDy=0;" edge="1" parent="1" source="j6ZGLxwOGD2uzRcKHzLd-1" target="j6ZGLxwOGD2uzRcKHzLd-101">
          <mxGeometry width="100" relative="1" as="geometry">
            <mxPoint x="740" y="280" as="sourcePoint" />
            <mxPoint x="840" y="280" as="targetPoint" />
          </mxGeometry>
        </mxCell>
        <mxCell id="j6ZGLxwOGD2uzRcKHzLd-105" value="" style="shape=link;html=1;rounded=0;fontSize=14;exitX=1;exitY=0.5;exitDx=0;exitDy=0;entryX=0;entryY=0.5;entryDx=0;entryDy=0;" edge="1" parent="1" source="j6ZGLxwOGD2uzRcKHzLd-101" target="j6ZGLxwOGD2uzRcKHzLd-102">
          <mxGeometry width="100" relative="1" as="geometry">
            <mxPoint x="740" y="280" as="sourcePoint" />
            <mxPoint x="840" y="280" as="targetPoint" />
          </mxGeometry>
        </mxCell>
        <mxCell id="j6ZGLxwOGD2uzRcKHzLd-106" value="N" style="text;html=1;strokeColor=none;fillColor=none;align=center;verticalAlign=middle;whiteSpace=wrap;rounded=0;fontSize=14;" vertex="1" parent="1">
          <mxGeometry x="620" y="180" width="60" height="30" as="geometry" />
        </mxCell>
        <mxCell id="j6ZGLxwOGD2uzRcKHzLd-107" value="1" style="text;html=1;strokeColor=none;fillColor=none;align=center;verticalAlign=middle;whiteSpace=wrap;rounded=0;fontSize=14;" vertex="1" parent="1">
          <mxGeometry x="750" y="180" width="60" height="30" as="geometry" />
        </mxCell>
        <mxCell id="j6ZGLxwOGD2uzRcKHzLd-109" value="" style="shape=link;html=1;rounded=0;fontSize=14;entryX=0.5;entryY=0;entryDx=0;entryDy=0;exitX=1;exitY=1;exitDx=0;exitDy=0;" edge="1" parent="1" source="j6ZGLxwOGD2uzRcKHzLd-1" target="j6ZGLxwOGD2uzRcKHzLd-80">
          <mxGeometry width="100" relative="1" as="geometry">
            <mxPoint x="340" y="280" as="sourcePoint" />
            <mxPoint x="440" y="280" as="targetPoint" />
          </mxGeometry>
        </mxCell>
        <mxCell id="j6ZGLxwOGD2uzRcKHzLd-110" value="Teaches" style="shape=rhombus;perimeter=rhombusPerimeter;whiteSpace=wrap;html=1;align=center;fontSize=14;" vertex="1" parent="1">
          <mxGeometry x="890" y="340" width="120" height="60" as="geometry" />
        </mxCell>
        <mxCell id="j6ZGLxwOGD2uzRcKHzLd-111" value="" style="shape=link;html=1;rounded=0;fontSize=14;entryX=0.5;entryY=1;entryDx=0;entryDy=0;exitX=0.5;exitY=0;exitDx=0;exitDy=0;" edge="1" parent="1" source="j6ZGLxwOGD2uzRcKHzLd-110" target="j6ZGLxwOGD2uzRcKHzLd-102">
          <mxGeometry width="100" relative="1" as="geometry">
            <mxPoint x="740" y="350" as="sourcePoint" />
            <mxPoint x="840" y="350" as="targetPoint" />
          </mxGeometry>
        </mxCell>
        <mxCell id="j6ZGLxwOGD2uzRcKHzLd-112" value="Teacher" style="whiteSpace=wrap;html=1;align=center;fontSize=14;" vertex="1" parent="1">
          <mxGeometry x="900" y="520" width="100" height="40" as="geometry" />
        </mxCell>
      </root>
    </mxGraphModel>
  </diagram>
</mxfile>
